<?xml version="1.0" encoding="UTF-8" standalone="no"?>
<!-- Created with Inkscape (http://www.inkscape.org/) -->

<svg
   xmlns:dc="http://purl.org/dc/elements/1.1/"
   xmlns:cc="http://creativecommons.org/ns#"
   xmlns:rdf="http://www.w3.org/1999/02/22-rdf-syntax-ns#"
   xmlns:svg="http://www.w3.org/2000/svg"
   xmlns="http://www.w3.org/2000/svg"
   xmlns:sodipodi="http://sodipodi.sourceforge.net/DTD/sodipodi-0.dtd"
   xmlns:inkscape="http://www.inkscape.org/namespaces/inkscape"
   version="1.1"
   id="svg815"
   xml:space="preserve"
   width="816"
   height="1056"
   viewBox="0 0 816 1056"
   sodipodi:docname="3D-Glasses.svg"
   inkscape:version="0.92.2 (5c3e80d, 2017-08-06)"><metadata
     id="metadata821"><rdf:RDF><cc:Work
         rdf:about=""><dc:format>image/svg+xml</dc:format><dc:type
           rdf:resource="http://purl.org/dc/dcmitype/StillImage" /><dc:title></dc:title></cc:Work></rdf:RDF></metadata><defs
     id="defs819"><clipPath
       clipPathUnits="userSpaceOnUse"
       id="clipPath831"><path
         d="m 66.642,685.115 h 479.592 v 36.712 H 66.642 Z"
         id="path829"
         inkscape:connector-curvature="0" /></clipPath><clipPath
       clipPathUnits="userSpaceOnUse"
       id="clipPath837"><path
         d="m 89.272,720.575 v -95.447 m 433.013,95.447 v -95.447 m 23.689,-0.047 h -36.995 l -9.654,-12.712 h -151.53 c 0,0 -13.781,8.696 -17.32,16.555 -7.047,11.916 -9.695,25.606 -24.697,25.606 -16.756,0 -17.773,-13.738 -24.696,-25.606 -5.029,-8.619 -17.637,-16.555 -17.637,-16.555 H 111.914 l -9.654,12.712 H 65.501 l 0.237,0.047 v 95.447 h -0.367 480.733 -0.286 v -95.447 z m -93.552,4.719 c 0,0 22.722,0 22.722,35.7 0,37.83 -22.722,37.83 -22.722,37.83 h -71.546 c 0,0 -22.72,0 -22.72,-35.701 0,-37.829 22.72,-37.829 22.72,-37.829 z m -221.944,0 c 0,0 22.719,0 22.719,35.7 0,37.83 -22.719,37.83 -22.719,37.83 H 158.93 c 0,0 -22.72,0 -22.72,-35.701 0,-37.829 22.72,-37.829 22.72,-37.829 h 71.548"
         id="path835"
         inkscape:connector-curvature="0" /></clipPath><clipPath
       clipPathUnits="userSpaceOnUse"
       id="clipPath849"><path
         d="M 112.727,564.275 H 473.228 V 600.17 H 112.727 Z"
         id="path847"
         inkscape:connector-curvature="0" /></clipPath><clipPath
       clipPathUnits="userSpaceOnUse"
       id="clipPath855"><path
         d="m 136.36,600.285 v -95.446 m -23.01,0 v 95.446 h -0.303 298.892 c 0,0 35.074,-0.384 63.119,-30.981 15.914,-17.362 25.71,-37.314 23.373,-54.849 -1.618,-12.145 -10.231,-21.544 -22.979,-22.375 -10.379,-0.679 -20.531,6.498 -23.375,12.299 l -22.982,48.507 H 299.384 l -99.342,-48.094 h -87.215 l 0.523,0.047"
         id="path853"
         inkscape:connector-curvature="0"
         style="clip-rule:evenodd" /></clipPath><clipPath
       clipPathUnits="userSpaceOnUse"
       id="clipPath869"><path
         d="m 85.512,448.351 h 413.814 v 34.74 H 85.512 Z"
         id="path867"
         inkscape:connector-curvature="0" /></clipPath><clipPath
       clipPathUnits="userSpaceOnUse"
       id="clipPath875"><path
         d="m 477.308,387.695 v 95.447 m 23.533,-95.494 h -87.214 l -99.343,48.095 H 184.573 l -22.981,-48.508 c -2.844,-5.8 -11.06,-14.027 -21.437,-13.349 -12.75,0.831 -23.3,11.281 -24.917,23.425 -2.337,17.535 7.458,37.487 23.371,54.85 28.046,30.597 63.12,30.981 63.12,30.981 h 298.892 -0.302 v -95.447 l 0.522,-0.047"
         id="path873"
         inkscape:connector-curvature="0"
         style="clip-rule:evenodd" /></clipPath><clipPath
       clipPathUnits="userSpaceOnUse"
       id="clipPath981"><path
         d="m 427.433,154.093 h 166.282 v 16.388 H 427.433 Z"
         id="path979"
         inkscape:connector-curvature="0" /></clipPath><clipPath
       clipPathUnits="userSpaceOnUse"
       id="clipPath987"><path
         d="m 438.332,170.533 v -43.555 m -10.611,0 v 43.555 h -0.14 137.835 c 0,0 16.174,-0.175 29.107,-14.137 7.339,-7.923 11.856,-17.03 10.778,-25.03 -0.745,-5.543 -4.719,-9.831 -10.597,-10.211 -4.785,-0.309 -9.467,2.966 -10.779,5.612 l -10.598,22.138 H 513.512 L 467.699,126.957 H 427.48 l 0.241,0.021"
         id="path985"
         inkscape:connector-curvature="0"
         style="clip-rule:evenodd" /></clipPath><clipPath
       clipPathUnits="userSpaceOnUse"
       id="clipPath1015"><path
         d="M -5,154.42 H 185.768 V 170.4 H -5 Z"
         id="path1013"
         inkscape:connector-curvature="0" /></clipPath><clipPath
       clipPathUnits="userSpaceOnUse"
       id="clipPath1021"><path
         d="m 175.677,126.521 v 43.904 m 10.853,-43.924 h -40.22 l -45.812,22.12 H 40.682 L 30.084,126.312 c -1.311,-2.67 -5.994,-5.969 -10.778,-5.658 -5.879,0.383 -9.852,4.705 -10.598,10.293 -1.078,8.063 3.44,17.24 10.778,25.227 12.933,14.071 29.108,14.251 29.108,14.251 h 137.833 -0.14 v -43.904 l 0.243,-0.02"
         id="path1019"
         inkscape:connector-curvature="0"
         style="clip-rule:evenodd" /></clipPath><clipPath
       clipPathUnits="userSpaceOnUse"
       id="clipPath1049"><path
         d="m 195.689,153.892 h 221.153 v 16.923 H 195.689 Z"
         id="path1047"
         inkscape:connector-curvature="0" /></clipPath><clipPath
       clipPathUnits="userSpaceOnUse"
       id="clipPath1055"><path
         d="m 206.125,170.237 v -44.014 m 199.684,44.014 v -44.014 m 10.924,-0.022 h -17.06 l -4.453,-5.862 h -69.878 c 0,0 -6.355,4.011 -7.988,7.636 -3.25,5.493 -4.47,11.806 -11.388,11.806 -7.726,0 -8.196,-6.335 -11.388,-11.806 -2.319,-3.976 -8.134,-7.636 -8.134,-7.636 h -69.878 l -4.452,5.862 h -16.951 l 0.109,0.022 v 44.014 h -0.169 221.69 -0.133 v -44.014 z m -43.142,2.176 c 0,0 10.477,0 10.477,16.464 0,17.444 -10.477,17.444 -10.477,17.444 h -32.994 c 0,0 -10.477,0 -10.477,-16.462 0,-17.446 10.477,-17.446 10.477,-17.446 z m -102.35,0 c 0,0 10.477,0 10.477,16.464 0,17.444 -10.477,17.444 -10.477,17.444 h -32.994 c 0,0 -10.477,0 -10.477,-16.462 0,-17.446 10.477,-17.446 10.477,-17.446 h 32.994"
         id="path1053"
         inkscape:connector-curvature="0"
         style="clip-rule:evenodd" /></clipPath><clipPath
       clipPathUnits="userSpaceOnUse"
       id="clipPath1131"><path
         d="m 406.174,49.173 h 63.997 v 16.388 h -63.997 z"
         id="path1129"
         inkscape:connector-curvature="0" /></clipPath><clipPath
       clipPathUnits="userSpaceOnUse"
       id="clipPath1137"><path
         d="m 409.075,65.339 0.059,-41.551 m -2.909,41.81 -0.038,0.004 34.89,-2.477 c 0,0 4.361,-0.289 8.018,-6.62 2.081,-3.138 3.414,-6.649 3.222,-10.038 -0.131,-2.374 -1.155,-4.652 -2.743,-5.563 -1.294,-0.758 -2.601,0.164 -2.99,1.256 l -3.128,9.94 -13.979,-2.826 -12.312,-21.107 -11.004,-6.085 0.067,0.058"
         id="path1135"
         inkscape:connector-curvature="0"
         style="clip-rule:evenodd" /></clipPath><clipPath
       clipPathUnits="userSpaceOnUse"
       id="clipPath1273"><path
         d="m 147.706,49.498 h 58.098 v 15.98 h -58.098 z"
         id="path1271"
         inkscape:connector-curvature="0" /></clipPath><clipPath
       clipPathUnits="userSpaceOnUse"
       id="clipPath1279"><path
         d="m 203.811,22.791 0.022,42.067 m 2.171,-43.233 0.05,-0.046 -8.309,4.317 -9.378,19.832 -12.292,1.28 -4.398,-9.504 c -0.281,-1.071 -1.26,-2.072 -2.242,-1.483 -1.206,0.708 -2.002,2.757 -2.128,4.982 -0.184,3.17 0.788,6.607 2.333,9.777 2.722,6.365 8.155,7.566 8.155,7.566 l 28.238,7.149 -0.029,-0.008"
         id="path1277"
         inkscape:connector-curvature="0"
         style="clip-rule:evenodd" /></clipPath><clipPath
       clipPathUnits="userSpaceOnUse"
       id="clipPath1415"><path
         d="M 205.736,48.777 H 405.854 V 65.7 H 205.736 Z"
         id="path1413"
         inkscape:connector-curvature="0" /></clipPath><clipPath
       clipPathUnits="userSpaceOnUse"
       id="clipPath1421"><path
         d="M 205.886,65.646 V 21.63 M 405.57,65.646 V 21.63 m 10.925,-0.023 h -17.061 l -4.452,-5.862 h -69.878 c 0,0 -6.355,4.012 -7.988,7.636 -3.249,5.495 -4.47,11.807 -11.387,11.807 -7.729,0 -8.197,-6.335 -11.39,-11.807 -2.318,-3.976 -8.133,-7.636 -8.133,-7.636 h -69.878 l -4.452,5.862 h -16.951 l 0.109,0.023 v 44.016 h -0.17 221.692 -0.133 V 21.63 Z m -43.142,2.177 c 0,0 10.477,0 10.477,16.465 0,17.443 -10.477,17.443 -10.477,17.443 h -32.994 c 0,0 -10.477,0 -10.477,-16.463 0,-17.445 10.477,-17.445 10.477,-17.445 z m -102.35,0 c 0,0 10.477,0 10.477,16.465 0,17.443 -10.477,17.443 -10.477,17.443 h -32.994 c 0,0 -10.477,0 -10.477,-16.463 0,-17.445 10.477,-17.445 10.477,-17.445 h 32.994"
         id="path1419"
         inkscape:connector-curvature="0" /></clipPath><clipPath
       clipPathUnits="userSpaceOnUse"
       id="clipPath1513"><path
         d="m 195.625,292.834 h 221.154 v 16.924 H 195.625 Z"
         id="path1511"
         inkscape:connector-curvature="0" /></clipPath><clipPath
       clipPathUnits="userSpaceOnUse"
       id="clipPath1519"><path
         d="m 206.061,309.18 v -44.014 m 199.682,44.014 v -44.014 m 10.926,-0.021 h -17.061 l -4.453,-5.865 h -69.876 c 0,0 -6.355,4.012 -7.988,7.637 -3.25,5.495 -4.471,11.807 -11.389,11.807 -7.726,0 -8.196,-6.335 -11.389,-11.807 -2.318,-3.977 -8.132,-7.637 -8.132,-7.637 h -69.878 l -4.453,5.865 h -16.951 l 0.109,0.021 v 44.014 h -0.17 221.691 -0.131 v -44.014 z m -43.143,2.174 c 0,0 10.478,0 10.478,16.465 0,17.444 -10.478,17.444 -10.478,17.444 h -32.993 c 0,0 -10.475,0 -10.475,-16.462 0,-17.447 10.475,-17.447 10.475,-17.447 z m -102.348,0 c 0,0 10.476,0 10.476,16.465 0,17.444 -10.476,17.444 -10.476,17.444 h -32.994 c 0,0 -10.478,0 -10.478,-16.462 0,-17.447 10.478,-17.447 10.478,-17.447 h 32.994"
         id="path1517"
         inkscape:connector-curvature="0" /></clipPath></defs><sodipodi:namedview
     pagecolor="#ffffff"
     bordercolor="#666666"
     borderopacity="1"
     objecttolerance="10"
     gridtolerance="10"
     guidetolerance="10"
     inkscape:pageopacity="0"
     inkscape:pageshadow="2"
     inkscape:window-width="716"
     inkscape:window-height="403"
     id="namedview817"
     showgrid="false"
     inkscape:zoom="0.18012474"
     inkscape:cx="494.14448"
     inkscape:cy="554.37862"
     inkscape:window-x="1641"
     inkscape:window-y="208"
     inkscape:window-maximized="0"
     inkscape:current-layer="g823" /><g
     id="g823"
     inkscape:groupmode="layer"
     inkscape:label="3dglasses"
     transform="matrix(1.3333333,0,0,-1.3333333,0,1056)"><g
       id="g1642"><path
         inkscape:connector-curvature="0"
         id="path883"
         style="fill:none;stroke:#231f20;stroke-width:1;stroke-linecap:butt;stroke-linejoin:miter;stroke-miterlimit:4;stroke-dasharray:none;stroke-opacity:1"
         d="m 89.794,720.575 v -95.447 m 433.014,95.447 v -95.447 m 23.688,-0.047 h -36.993 l -9.654,-12.712 H 348.318 c 0,0 -13.781,8.696 -17.321,16.555 -7.046,11.916 -9.693,25.606 -24.696,25.606 -16.756,0 -17.773,-13.738 -24.697,-25.606 -5.029,-8.619 -17.637,-16.555 -17.637,-16.555 H 112.438 l -9.655,12.712 H 66.024 l 0.237,0.047 v 95.447 h -0.367 480.733 -0.285 v -95.447 z m -93.551,4.719 c 0,0 22.72,0 22.72,35.7 0,37.83 -22.72,37.83 -22.72,37.83 h -71.547 c 0,0 -22.719,0 -22.719,-35.701 0,-37.829 22.719,-37.829 22.719,-37.829 z M 231,629.8 c 0,0 22.72,0 22.72,35.7 0,37.83 -22.72,37.83 -22.72,37.83 h -71.547 c 0,0 -22.72,0 -22.72,-35.701 0,-37.829 22.72,-37.829 22.72,-37.829 z" /></g><g
       id="g1634"><path
         inkscape:connector-curvature="0"
         id="path861"
         style="fill:none;stroke:#8e969c;stroke-width:1;stroke-linecap:butt;stroke-linejoin:miter;stroke-miterlimit:4;stroke-dasharray:none;stroke-opacity:1"
         d="m 136.36,600.285 v -95.446 m -23.01,0 v 95.446 h -0.303 298.892 c 0,0 35.074,-0.384 63.119,-30.981 15.914,-17.362 25.71,-37.314 23.373,-54.849 -1.618,-12.145 -10.231,-21.544 -22.979,-22.375 -10.379,-0.679 -20.531,6.498 -23.375,12.299 l -22.982,48.507 H 299.384 l -99.342,-48.094 h -87.215 z" /><path
         inkscape:connector-curvature="0"
         id="path885"
         style="fill:none;stroke:#8e969c;stroke-width:1;stroke-linecap:butt;stroke-linejoin:miter;stroke-miterlimit:4;stroke-dasharray:none;stroke-opacity:1"
         d="M 135.712,599.723 V 504.277" /><path
         inkscape:connector-curvature="0"
         id="path887"
         style="fill:none;stroke:#231f20;stroke-width:1;stroke-linecap:butt;stroke-linejoin:miter;stroke-miterlimit:4;stroke-dasharray:none;stroke-opacity:1"
         d="m 112.702,504.277 v 95.446 H 112.4 411.292 c 0,0 35.073,-0.384 63.119,-30.981 15.914,-17.362 25.71,-37.314 23.372,-54.849 -1.618,-12.145 -10.229,-21.544 -22.979,-22.375 -10.377,-0.678 -20.532,6.498 -23.373,12.299 l -22.984,48.507 H 298.736 L 199.393,504.23 h -87.214 z" /></g><g
       id="g1639"><path
         inkscape:connector-curvature="0"
         id="path881"
         style="fill:none;stroke:#8e969c;stroke-width:1;stroke-linecap:butt;stroke-linejoin:miter;stroke-miterlimit:4;stroke-dasharray:none;stroke-opacity:1"
         d="m 477.308,387.695 v 95.447 m 23.533,-95.494 h -87.214 l -99.343,48.095 H 184.573 l -22.981,-48.508 c -2.844,-5.8 -11.06,-14.027 -21.437,-13.349 -12.75,0.831 -23.3,11.281 -24.917,23.425 -2.337,17.535 7.458,37.487 23.371,54.85 28.046,30.597 63.12,30.981 63.12,30.981 h 298.892 -0.302 v -95.447 z" /><path
         inkscape:connector-curvature="0"
         id="path889"
         style="fill:none;stroke:#8e969c;stroke-width:1;stroke-linecap:butt;stroke-linejoin:miter;stroke-miterlimit:4;stroke-dasharray:none;stroke-opacity:1"
         d="m 476.81,388.223 v 95.446" /><path
         inkscape:connector-curvature="0"
         id="path891"
         style="fill:none;stroke:#231f20;stroke-width:1;stroke-linecap:butt;stroke-linejoin:miter;stroke-miterlimit:4;stroke-dasharray:none;stroke-opacity:1"
         d="m 499.82,388.223 v 95.446 h 0.303 -298.893 c 0,0 -35.072,-0.384 -63.118,-30.982 -15.914,-17.361 -25.709,-37.314 -23.373,-54.849 1.618,-12.145 12.281,-22.901 25.03,-23.731 10.377,-0.679 18.481,7.854 21.324,13.656 l 22.982,48.506 h 129.711 l 99.343,-48.094 h 87.214 z" /></g><text
       transform="matrix(1,0,0,-1,165.243,671.975)"
       style="font-variant:normal;font-weight:normal;font-size:12.55109978px;font-family:Arial;-inkscape-font-specification:ArialMT;writing-mode:lr-tb;fill:#858d93;fill-opacity:1;fill-rule:nonzero;stroke:none"
       id="text1497"><tspan
         x="0 9.0618944 11.848238 18.826651 25.805061 29.294268 32.783474 41.155056 47.430607"
         y="0"
         sodipodi:role="line"
         id="tspan1489">Right Eye</tspan><tspan
         x="-18.847986 -10.476403 -7.6900592 -0.71164739 6.2667642 9.75597 18.817863 25.796276 28.582621 31.368965 38.347374 45.325787 52.304199 59.282612 66.261024"
         y="15.051279"
         sodipodi:role="line"
         id="tspan1491">Blue Cellophane</tspan><tspan
         x="231.14859 238.127 245.10541 248.59462 252.08382 255.57303 263.94461 270.22015"
         y="-1.0442514"
         sodipodi:role="line"
         id="tspan1493">Left Eye</tspan><tspan
         x="209.1666 218.22849 225.20689 232.1853 235.67451 244.7364 251.71481 254.50116 257.28751 264.26593 271.24432 278.22275 285.20114 292.17957"
         y="14.007028"
         sodipodi:role="line"
         id="tspan1495">Red Cellophane</tspan></text>
<g
       id="g1679"><path
         inkscape:connector-curvature="0"
         id="path1499"
         style="fill:#343b97;fill-opacity:1;fill-rule:nonzero;stroke:none"
         d="m 219.885,249.641 h 66.939 v -44.975 h -66.939 z" /><path
         inkscape:connector-curvature="0"
         id="path1501"
         style="fill:none;stroke:#798186;stroke-width:1;stroke-linecap:butt;stroke-linejoin:miter;stroke-miterlimit:4;stroke-dasharray:none;stroke-opacity:1"
         d="m 219.885,249.641 h 66.939 v -44.975 h -66.939 z" /></g><g
       id="g1675"><path
         inkscape:connector-curvature="0"
         id="path1503"
         style="fill:#d43a2a;fill-opacity:1;fill-rule:nonzero;stroke:none"
         d="m 326.787,248.925 h 66.94 V 203.95 h -66.94 z" /><path
         inkscape:connector-curvature="0"
         id="path1505"
         style="fill:none;stroke:#8d8f91;stroke-width:1;stroke-linecap:butt;stroke-linejoin:miter;stroke-miterlimit:4;stroke-dasharray:none;stroke-opacity:1"
         d="m 326.787,248.925 h 66.94 V 203.95 h -66.94 z" /></g><g
       id="g1671"><path
         inkscape:connector-curvature="0"
         id="path1525"
         style="fill:none;stroke:#231f20;stroke-width:1;stroke-linecap:butt;stroke-linejoin:miter;stroke-miterlimit:4;stroke-dasharray:none;stroke-opacity:1"
         d="m 206.302,309.18 v -44.014 m 199.682,44.014 v -44.014 m 10.926,-0.021 h -17.06 l -4.453,-5.865 H 325.52 c 0,0 -6.355,4.012 -7.988,7.637 -3.249,5.495 -4.469,11.807 -11.388,11.807 -7.727,0 -8.196,-6.335 -11.39,-11.807 -2.318,-3.977 -8.132,-7.637 -8.132,-7.637 h -69.878 l -4.453,5.865 H 195.34 l 0.109,0.021 v 44.014 h -0.169 221.689 -0.13 v -44.014 z m -43.14,2.174 c 0,0 10.474,0 10.474,16.465 0,17.444 -10.474,17.444 -10.474,17.444 h -32.994 c 0,0 -10.478,0 -10.478,-16.462 0,-17.447 10.478,-17.447 10.478,-17.447 z m -102.352,0 c 0,0 10.478,0 10.478,16.465 0,17.444 -10.478,17.444 -10.478,17.444 h -32.994 c 0,0 -10.476,0 -10.476,-16.462 0,-17.447 10.476,-17.447 10.476,-17.447 z" /></g><g
       id="g1653"><path
         inkscape:connector-curvature="0"
         id="path1143"
         style="fill:none;stroke:#8e969c;stroke-width:1;stroke-linecap:butt;stroke-linejoin:miter;stroke-miterlimit:4;stroke-dasharray:none;stroke-opacity:1"
         d="m 409.075,65.339 0.059,-41.551 m -2.909,41.81 -0.038,0.004 34.89,-2.477 c 0,0 4.361,-0.289 8.018,-6.62 2.081,-3.138 3.414,-6.649 3.222,-10.038 -0.131,-2.374 -1.155,-4.652 -2.743,-5.563 -1.294,-0.758 -2.601,0.164 -2.99,1.256 l -3.128,9.94 -13.979,-2.826 -12.312,-21.107 -11.004,-6.085 0.067,0.058 m 2.766,42.963 0.057,-41.606" /><path
         inkscape:connector-curvature="0"
         id="path1145"
         style="fill:none;stroke:#231f20;stroke-width:1;stroke-linecap:butt;stroke-linejoin:miter;stroke-miterlimit:4;stroke-dasharray:none;stroke-opacity:1"
         d="M 406.144,65.35 406.105,65.354 441,62.993 c 0,0 4.361,-0.277 8.018,-6.61 2.08,-3.14 3.415,-6.654 3.221,-10.051 -0.132,-2.381 -1.154,-4.664 -2.743,-5.579 -1.294,-0.764 -2.602,0.158 -2.989,1.252 l -3.128,9.949 -13.981,-2.869 -12.313,-21.179 -11.006,-6.13 0.066,0.061" /><path
         inkscape:connector-curvature="0"
         id="path1285"
         style="fill:none;stroke:#8e969c;stroke-width:1;stroke-linecap:butt;stroke-linejoin:miter;stroke-miterlimit:4;stroke-dasharray:none;stroke-opacity:1"
         d="m 203.811,22.791 0.022,42.067 m 2.171,-43.233 0.05,-0.046 -8.309,4.317 -9.378,19.832 -12.292,1.28 -4.398,-9.504 c -0.281,-1.071 -1.26,-2.072 -2.242,-1.483 -1.206,0.708 -2.002,2.757 -2.128,4.982 -0.184,3.17 0.788,6.607 2.333,9.777 2.722,6.365 8.155,7.566 8.155,7.566 l 28.238,7.149 -0.029,-0.008 m -2.24,-42.439 0.023,42.027" /><path
         inkscape:connector-curvature="0"
         id="path1287"
         style="fill:none;stroke:#231f20;stroke-width:1;stroke-linecap:butt;stroke-linejoin:miter;stroke-miterlimit:4;stroke-dasharray:none;stroke-opacity:1"
         d="m 205.957,65.714 0.028,0.008 -28.235,-7.26 c 0,0 -5.434,-1.217 -8.156,-7.581 -1.545,-3.17 -2.517,-6.605 -2.334,-9.771 0.127,-2.218 0.922,-4.263 2.129,-4.966 0.983,-0.586 1.96,0.416 2.242,1.485 l 4.398,9.507 12.292,-1.235 9.377,-19.777 8.308,-4.278 -0.05,0.047" /><path
         inkscape:connector-curvature="0"
         id="path1427"
         style="fill:none;stroke:#231f20;stroke-width:1;stroke-linecap:butt;stroke-linejoin:miter;stroke-miterlimit:4;stroke-dasharray:none;stroke-opacity:1"
         d="M 206.128,65.646 V 21.63 M 405.812,65.646 V 21.63 M 206.277,65.646 h 199.23 l 0.194,-44.016 -0.176,-0.023 h -5.849 l -4.453,-5.862 h -69.878 c 0,0 -6.355,4.012 -7.988,7.636 -3.25,5.495 -4.469,11.807 -11.388,11.807 -7.727,0 -8.196,-6.335 -11.388,-11.807 -2.319,-3.976 -8.134,-7.636 -8.134,-7.636 h -69.878 l -4.452,5.862 h -5.84 l -0.174,0.023 m 167.492,2.154 c 0,0 10.476,0 10.476,16.465 0,17.443 -10.476,17.443 -10.476,17.443 h -32.994 c 0,0 -10.478,0 -10.478,-16.463 0,-17.445 10.478,-17.445 10.478,-17.445 z m -102.351,0 c 0,0 10.478,0 10.478,16.465 0,17.443 -10.478,17.443 -10.478,17.443 H 238.25 c 0,0 -10.477,0 -10.477,-16.463 0,-17.445 10.477,-17.445 10.477,-17.445 z" /><path
         inkscape:connector-curvature="0"
         id="path1595"
         style="fill:#343b97;fill-opacity:1;fill-rule:evenodd;stroke:none"
         d="m 270.987,24.149 c 0,0 10.477,0 10.477,16.464 0,17.445 -10.477,17.445 -10.477,17.445 h -32.994 c 0,0 -10.477,0 -10.477,-16.462 0,-17.447 10.477,-17.447 10.477,-17.447 h 32.994" /><path
         inkscape:connector-curvature="0"
         id="path1597"
         style="fill:none;stroke:#798186;stroke-width:1;stroke-linecap:butt;stroke-linejoin:miter;stroke-miterlimit:4;stroke-dasharray:none;stroke-opacity:1"
         d="m 270.987,24.149 c 0,0 10.477,0 10.477,16.464 0,17.445 -10.477,17.445 -10.477,17.445 h -32.994 c 0,0 -10.477,0 -10.477,-16.462 0,-17.447 10.477,-17.447 10.477,-17.447 z" /><path
         inkscape:connector-curvature="0"
         id="path1599"
         style="fill:#d43a2a;fill-opacity:1;fill-rule:evenodd;stroke:none"
         d="m 373.337,24.149 c 0,0 10.476,0 10.476,16.464 0,17.445 -10.476,17.445 -10.476,17.445 h -32.992 c 0,0 -10.479,0 -10.479,-16.462 0,-17.447 10.479,-17.447 10.479,-17.447 h 32.992" /><path
         inkscape:connector-curvature="0"
         id="path1601"
         style="fill:none;stroke:#8d8f91;stroke-width:1;stroke-linecap:butt;stroke-linejoin:miter;stroke-miterlimit:4;stroke-dasharray:none;stroke-opacity:1"
         d="m 373.337,24.149 c 0,0 10.476,0 10.476,16.464 0,17.445 -10.476,17.445 -10.476,17.445 h -32.992 c 0,0 -10.479,0 -10.479,-16.462 0,-17.447 10.479,-17.447 10.479,-17.447 z" /></g><text
       transform="matrix(1,0,0,-1,184.584,780.1641)"
       style="font-variant:normal;font-weight:normal;font-size:14.64299965px;font-family:Arial;-inkscape-font-specification:ArialMT;writing-mode:lr-tb;fill:#231f20;fill-opacity:1;fill-rule:nonzero;stroke:none"
       id="text1605"><tspan
         x="0 12.197619 20.339127 27.660627 35.802135 39.607849 48.031967 56.173477 64.314987 69.191101 73.261856 84.654114 95.226357 103.36787 107.43862 115.58012 120.45625 131.02849 135.09924 144.86613 153.00763 161.14914 169.29065 174.16676 178.23752 189.62978 192.88052 201.02203 208.34354 215.66504 223.80653"
         y="0"
         sodipodi:role="line"
         id="tspan1603">Make Your Own 3-D Paper Glasses</tspan></text>
<text
       transform="matrix(1,0,0,-1,77.0503,752.8594)"
       style="font-variant:normal;font-weight:normal;font-size:11.50520039px;font-family:Arial;-inkscape-font-specification:ArialMT;writing-mode:lr-tb;fill:#231f20;fill-opacity:1;fill-rule:nonzero;stroke:none"
       id="text1623"><tspan
         x="0 7.6739683 11.5052 14.059355 20.456245 23.654692 26.853136 33.250027 39.646919 42.845364 46.043812 52.440701 58.837593 65.234482 68.43293 74.829819 77.383972 83.780869 90.177757 93.376205 96.574646 102.97154 106.80277 110.00122 113.19966 119.59656 125.99345 132.39034 135.58878 138.78723 145.18411 147.73827 153.49088 156.68932 159.88777 166.28465 175.86848 182.26538 184.81953 191.21643 194.41487 200.81177 204.01021 210.4071 216.80399 220.00244 223.20088 229.59778 232.79622 239.19312 242.39156 248.78845 255.18533 261.58221 267.33484 269.88898 276.28586 280.1171 283.31555 289.71243 292.2666 298.66348 304.41608 310.81299 314.01141 320.40833 323.60675 326.80521 333.20209 339.599 345.99588 352.39276 356.224 359.42245 365.17505 371.57193 377.32455 383.72144 386.91986 393.31677 399.06937 402.26782 408.02042 414.4173 418.24854 424.64542 427.84387 433.59647 436.79492 443.1918 448.9444 454.69702 457.89545"
         y="0"
         sodipodi:role="line"
         id="tspan1607">Print out and glue, or tape this template on to a heavier piece of paper such as card stock. </tspan><tspan
         x="0 7.0296774 13.426568 19.82346 26.22035 29.418797 35.171398 41.568287 44.766735 47.965179 54.362068 60.758961 63.957405 67.155853 70.354301 76.75119 83.148079 86.346527 89.544975 95.941864 99.773094 106.16998 112.56688 115.76532 118.96377 125.36066 134.94449 141.34138 143.89554 150.29243 153.49088 159.88777 165.64037 168.83881 175.2357 181.6326 184.18675 190.58363 198.26335 201.46181 204.66025 212.96701 219.36389 228.94772 235.34462 244.92845 251.32535 257.72223 261.55347 264.75192 267.95035 274.34726 277.54568 283.29828 289.69519 292.89362 296.09207 302.48895 308.88586 312.08429 315.28275 318.4812 324.87808 331.27496 334.47342 340.8703 346.62292 353.01981 356.21826 362.61514 369.01202 371.56619 377.96307 383.71567"
         y="14.00528"
         sodipodi:role="line"
         id="tspan1609">Then cut out the three templates below. Remember to cut out the eye holes.</tspan><tspan
         x="-36.957005 -28.005959 -21.609066 -15.856466 -9.4595757 -6.2611299 -0.50852984 5.8883615 12.285253 15.483698 21.880589 28.277481 34.030079 40.426971 43.625416 46.823864 53.220753 59.617645 62.81609 66.014534 72.41143 76.242661 82.639549 89.036438 92.234886 98.631775 101.18594 107.58282 113.33543 119.73232 125.48492 128.68336 134.43596 140.83286 144.0313 147.22974 153.62663 160.02353 163.22197 166.42041 169.61887 176.01575 178.56992 184.9668 191.36369 194.56213 197.76057 204.15747 207.98871 211.18715 214.38559 220.78249 227.17938 233.57626 236.77472 243.1716 245.72575 252.12265 257.87524 264.27216 270.02475 273.22318 279.62009 282.81851 286.01697 291.76956 298.16647 300.72061 303.27478 309.67166 316.06854 322.46545 328.86234 335.25922 341.65613 344.85455 351.25146 357.64835 360.8468 364.04523 370.44214 373.64056 376.83902 383.2359 389.63281 392.83124 395.38541 401.78229 407.53488 410.08905 416.48593 422.88284 426.08127 432.47818 435.67661 438.87506 442.07352 448.4704 454.86728 458.06573 464.46262 467.01678 473.41367 479.16626 484.91885 491.31577 497.06836"
         y="402.3334"
         sodipodi:role="line"
         id="tspan1611">Once you have the three pieces cut out, glue, or tape pieces of cellophane on to the inside of the glasses.</tspan><tspan
         x="-36.957005 -29.283035 -22.886145 -19.687698 -13.935099 -7.5382071 -3.7069755 2.6899157 5.8883615 12.285253 14.839407 18.037853 24.434744 30.831635 34.030079 37.228527 40.426971 46.823864 50.022308 56.419201 62.81609 66.014534 69.212982 72.41143 78.808319 85.205208 88.403656 94.800545 97.354698 103.75159 110.14848 113.34693 119.74382 126.14071 129.33916 132.5376 138.93449 145.33139 148.52983 154.28242 156.83658 163.23347 171.54024 174.09439 180.49127 186.88817 190.08661 196.48351 200.31474 206.71162 213.10852 216.30696 222.70386 225.9023 229.10075 232.29919 238.69609 245.09297 248.29143 254.04402 260.44092 262.99506 265.54922 271.94611 278.34302 284.7399 291.13678 297.53369 303.93057 307.129 310.12958 316.74734 323.14426 329.54114 332.73959 338.49219 344.88907 351.28598 354.48441 357.68286 360.23703 366.63391 373.03079 376.22925 381.98184 388.37872 390.93289 393.48703 399.88394 406.28082 412.6777 419.07462 425.4715 431.86838 435.06683 441.46371 445.29495 448.49341 454.246 456.80017 466.384 468.93814 471.49231 477.88919 481.72043"
         y="416.33868"
         sodipodi:role="line"
         id="tspan1613">Be careful not to get the glue on the viewing area of the cellophane. You can find cellophane or similar </tspan><tspan
         x="-36.957005 -27.373173 -20.97628 -17.777836 -11.380944 -7.5497122 -4.9955578 1.4013333 3.9554877 9.7080879 12.906533 19.303425 22.501871 25.700315 31.452915 35.284149 41.681038 44.879482 48.07793 51.276375 57.673267 64.07016 70.467049 73.665497 80.062386 83.893616 87.092064 90.290512 96.043106 99.241554 105.63844 109.46967 115.86657 121.61917 124.81761 128.01605 134.41295 138.24419 141.44263 147.19522 150.39368 156.79056 160.6218 167.01869 172.77129 175.96973 179.16818 185.56506 191.96196 195.1604 198.35886 204.11145 210.50835 213.0625 215.61665 218.81509 225.21199 231.60889 235.44011 238.63855 244.39116 247.5896 253.34221 259.73911 266.13599 272.53287 275.08704 277.64117 284.03809 289.79068 292.98914"
         y="430.34396"
         sodipodi:role="line"
         id="tspan1615">materials at craft and art stores, or stores that sell party supplies. </tspan><tspan
         x="51.598522 58.628197 61.182354 67.579247 73.976135 76.530289 79.084442 83.98336 87.181801 90.380249 96.777138 99.331291 105.72819 112.12508 115.32352 121.72041 128.11731 131.31575 134.51419 140.91109 147.30798 150.50642 156.25902 158.81317 165.21007 171.60696 174.8054 181.2023 187.59918 193.99608 200.39297 202.94713 208.69972 211.89818 215.09662 221.49352 224.69196 230.44455 236.84145 246.42528 252.82217 255.37633 261.77322 264.97165 271.36856 274.56699 280.31961 286.71649 293.11337 296.94461 300.14307 306.53995 314.84671 321.24359 324.44205 330.19464 336.59152 342.98843 345.54257 348.74103 355.13791 358.96915 367.27591 370.47433 376.87125 379.42538 385.82227 391.57489 397.32748 403.72437 409.47696"
         y="568.63531"
         sodipodi:role="line"
         id="tspan1617">Finally, glue on the side panels to complete your own cool 3-D glasses.</tspan><tspan
         x="68.023346 75.053024 81.449913 84.004066 90.400955 93.599403 96.797852 103.19474 109.59163 112.79008 115.98853 122.38541 128.7823 131.98076 138.37764 144.77454 151.17143 154.36987 160.76675 167.16365 173.56055 179.95743 182.5116 188.26419 191.46263 194.66109 201.05797 204.25642 210.00902 216.40591 225.98975 232.38663 234.94078 241.33768 244.53612 250.93301 254.13145 259.88406 266.28094 272.67786 276.50906 279.70752 286.1044 288.65857 295.05545 300.80804 306.56067 312.95755 318.71014 321.9086 328.30548 334.70236 341.09927 344.2977 347.49615 351.32739 357.07999 360.27844 363.47687 369.87378 376.27066 385.85449 389.05295 395.44983 401.84671 405.04517 408.24362 414.6405 421.03738"
         y="658.93732"
         sodipodi:role="line"
         id="tspan1619">Fold the the end panels to complete your glasses and try them out on </tspan><tspan
         x="16.992029 23.388922 29.785812 33.617043 36.815491 42.568089 48.964981 55.361874 57.916027 61.114471 67.51136 71.342598 79.649345 82.847794 85.401947 94.985779 101.38268 107.77956 114.17645 119.92905 123.1275 129.52438 132.72284 135.92128 142.31818 148.71506 155.11195 161.50885 165.34007 168.53853 174.93541 178.13387 181.33231 187.7292 190.92764 194.12608 200.52298 203.72142 206.91988 210.11832 212.67247 215.22662 218.42506 224.82196 230.57457 236.32716 238.88132 245.27821 251.67509 257.4277 263.82458 269.57718 272.77563 279.17252 284.92514 291.32202 294.52048 300.91736 307.31424 313.71115 316.90958 323.30649 329.70337 336.10025 342.49716 346.32837 352.72528 356.55649 362.9534 365.50754 371.90445 377.65704 380.8555 384.05392 389.80652 392.36069 398.11328 407.69711 414.09399 420.49091 423.04504 425.59921 431.99609 435.82733 440.72626 443.92468 450.32159 453.52002 463.10385 465.65802"
         y="672.94263"
         sodipodi:role="line"
         id="tspan1621">our cool 3-D images of paper at http://lifesciences.asu.edu/paperproject/slcmgallery.html </tspan></text>
<g
       id="g1668"><path
         inkscape:connector-curvature="0"
         id="path993"
         style="fill:none;stroke:#8e969c;stroke-width:1;stroke-linecap:butt;stroke-linejoin:miter;stroke-miterlimit:4;stroke-dasharray:none;stroke-opacity:1"
         d="m 438.332,170.533 v -43.555 m -10.611,0 v 43.555 h -0.14 137.835 c 0,0 16.174,-0.175 29.107,-14.137 7.339,-7.923 11.856,-17.03 10.778,-25.03 -0.745,-5.543 -4.719,-9.831 -10.597,-10.211 -4.785,-0.309 -9.467,2.966 -10.779,5.612 l -10.598,22.138 H 513.512 L 467.699,126.957 H 427.48 Z m 10.312,43.3 v -43.556" /><path
         inkscape:connector-curvature="0"
         id="path995"
         style="fill:none;stroke:#231f20;stroke-width:1;stroke-linecap:butt;stroke-linejoin:miter;stroke-miterlimit:4;stroke-dasharray:none;stroke-opacity:1"
         d="m 427.421,126.722 v 43.556 h -0.139 137.834 c 0,0 16.175,-0.175 29.108,-14.139 7.339,-7.922 11.855,-17.028 10.778,-25.03 -0.745,-5.544 -4.717,-9.831 -10.596,-10.21 -4.787,-0.31 -9.468,2.965 -10.779,5.613 L 573.03,148.648 H 513.213 L 467.4,126.699 h -40.219 z" /><path
         inkscape:connector-curvature="0"
         id="path1027"
         style="fill:none;stroke:#8e969c;stroke-width:1;stroke-linecap:butt;stroke-linejoin:miter;stroke-miterlimit:4;stroke-dasharray:none;stroke-opacity:1"
         d="m 175.677,126.521 v 43.904 m 10.853,-43.924 h -40.22 l -45.812,22.12 H 40.682 L 30.084,126.312 c -1.311,-2.67 -5.994,-5.969 -10.778,-5.658 -5.879,0.383 -9.852,4.705 -10.598,10.293 -1.078,8.063 3.44,17.24 10.778,25.227 12.933,14.071 29.108,14.251 29.108,14.251 h 137.833 -0.14 v -43.904 z m -11.084,0.263 v 43.901" /><path
         inkscape:connector-curvature="0"
         id="path1029"
         style="fill:none;stroke:#231f20;stroke-width:1;stroke-linecap:butt;stroke-linejoin:miter;stroke-miterlimit:4;stroke-dasharray:none;stroke-opacity:1"
         d="m 186.058,126.764 v 43.901 h 0.139 -137.833 c 0,0 -16.175,-0.177 -29.108,-14.249 C 11.918,148.43 7.4,139.251 8.479,131.187 c 0.745,-5.585 4.717,-9.909 10.597,-10.291 4.784,-0.311 9.466,2.99 10.778,5.658 l 10.598,22.312 h 59.817 l 45.811,-22.123 h 40.219 z" /><path
         inkscape:connector-curvature="0"
         id="path1061"
         style="fill:none;stroke:#7a7b7e;stroke-width:1;stroke-linecap:butt;stroke-linejoin:miter;stroke-miterlimit:4;stroke-dasharray:none;stroke-opacity:1"
         d="m 206.125,170.237 v -44.014 m 199.684,44.014 v -44.014 m 10.924,-0.022 h -17.06 l -4.453,-5.862 h -69.878 c 0,0 -6.355,4.011 -7.988,7.636 -3.25,5.493 -4.47,11.806 -11.388,11.806 -7.726,0 -8.196,-6.335 -11.388,-11.806 -2.319,-3.976 -8.134,-7.636 -8.134,-7.636 h -69.878 l -4.452,5.862 h -16.951 l 0.109,0.022 v 44.014 h -0.169 221.69 -0.133 v -44.014 z m -43.142,2.176 c 0,0 10.477,0 10.477,16.464 0,17.444 -10.477,17.444 -10.477,17.444 h -32.994 c 0,0 -10.477,0 -10.477,-16.462 0,-17.446 10.477,-17.446 10.477,-17.446 z m -102.35,0 c 0,0 10.477,0 10.477,16.464 0,17.444 -10.477,17.444 -10.477,17.444 h -32.994 c 0,0 -10.477,0 -10.477,-16.462 0,-17.446 10.477,-17.446 10.477,-17.446 z" /><path
         inkscape:connector-curvature="0"
         id="path1063"
         style="fill:none;stroke:#787a7c;stroke-width:1;stroke-linecap:butt;stroke-linejoin:miter;stroke-miterlimit:4;stroke-dasharray:none;stroke-opacity:1"
         d="m 206.365,170.237 v -44.014 m 199.684,44.014 v -44.014 m 10.924,-0.022 h -17.059 l -4.454,-5.862 h -69.876 c 0,0 -6.355,4.011 -7.988,7.636 -3.25,5.493 -4.47,11.806 -11.389,11.806 -7.727,0 -8.196,-6.335 -11.389,-11.806 -2.318,-3.976 -8.133,-7.636 -8.133,-7.636 h -69.877 l -4.453,5.862 h -16.951 l 0.109,0.022 v 44.014 h -0.17 221.69 -0.132 v -44.014 z m -43.141,2.176 c 0,0 10.478,0 10.478,16.464 0,17.444 -10.478,17.444 -10.478,17.444 h -32.994 c 0,0 -10.477,0 -10.477,-16.462 0,-17.446 10.477,-17.446 10.477,-17.446 z m -102.35,0 c 0,0 10.477,0 10.477,16.464 0,17.444 -10.477,17.444 -10.477,17.444 h -32.993 c 0,0 -10.478,0 -10.478,-16.462 0,-17.446 10.478,-17.446 10.478,-17.446 z" /><path
         inkscape:connector-curvature="0"
         id="path1587"
         style="fill:#343b97;fill-opacity:1;fill-rule:evenodd;stroke:none"
         d="m 271.684,128.047 c 0,0 10.477,0 10.477,16.463 0,17.444 -10.477,17.444 -10.477,17.444 H 238.69 c 0,0 -10.477,0 -10.477,-16.462 0,-17.445 10.477,-17.445 10.477,-17.445 h 32.994" /><path
         inkscape:connector-curvature="0"
         id="path1589"
         style="fill:none;stroke:#798186;stroke-width:1;stroke-linecap:butt;stroke-linejoin:miter;stroke-miterlimit:4;stroke-dasharray:none;stroke-opacity:1"
         d="m 271.684,128.047 c 0,0 10.477,0 10.477,16.463 0,17.444 -10.477,17.444 -10.477,17.444 H 238.69 c 0,0 -10.477,0 -10.477,-16.462 0,-17.445 10.477,-17.445 10.477,-17.445 z" /><path
         inkscape:connector-curvature="0"
         id="path1591"
         style="fill:#d43a2a;fill-opacity:1;fill-rule:evenodd;stroke:none"
         d="m 374.035,128.047 c 0,0 10.475,0 10.475,16.463 0,17.444 -10.475,17.444 -10.475,17.444 h -32.993 c 0,0 -10.479,0 -10.479,-16.462 0,-17.445 10.479,-17.445 10.479,-17.445 h 32.993" /><path
         inkscape:connector-curvature="0"
         id="path1593"
         style="fill:none;stroke:#8d8f91;stroke-width:1;stroke-linecap:butt;stroke-linejoin:miter;stroke-miterlimit:4;stroke-dasharray:none;stroke-opacity:1"
         d="m 374.035,128.047 c 0,0 10.475,0 10.475,16.463 0,17.444 -10.475,17.444 -10.475,17.444 h -32.993 c 0,0 -10.479,0 -10.479,-16.462 0,-17.445 10.479,-17.445 10.479,-17.445 z" /><text
         id="text1629"
         style="font-variant:normal;font-weight:normal;font-size:8.36740017px;font-family:Arial;-inkscape-font-specification:ArialMT;writing-mode:lr-tb;fill:#231f20;fill-opacity:1;fill-rule:nonzero;stroke:none"
         transform="matrix(0,1,1,0,435.335,128.877)"><tspan
           id="tspan1625"
           sodipodi:role="line"
           y="0"
           x="0 6.5098372 8.3674002 13.019674 17.671949 19.998087 26.039349 30.691624 33.477966">Glue Here</tspan><tspan
           id="tspan1627"
           sodipodi:role="line"
           y="-251.28474"
           x="-0.78318864 5.7266483 7.5842113 12.236485 16.88876 19.214897 25.256161 29.908434 32.694778">Glue Here</tspan></text>
</g></g></svg>